<?xml version="1.0" encoding="utf-8"?>
<svg viewBox="2.34 -0.19 24 24" xmlns="http://www.w3.org/2000/svg">
  <defs>
    <radialGradient gradientUnits="userSpaceOnUse" cx="18.84" cy="16.31" r="1.502" id="gradient-0">
      <stop offset="0" style="stop-color: rgba(0, 255, 25, 1)"/>
      <stop offset="1" style="stop-color: rgba(0, 153, 15, 1)"/>
    </radialGradient>
    <radialGradient gradientUnits="userSpaceOnUse" cx="9.77" cy="7.31" r="1.502" id="gradient-1">
      <stop offset="0" style="stop-color: rgba(0, 255, 25, 1)"/>
      <stop offset="1" style="stop-color: rgba(0, 153, 15, 1)"/>
    </radialGradient>
    <radialGradient gradientUnits="userSpaceOnUse" cx="14.102" cy="11.763" r="1.502" id="gradient-2">
      <stop offset="0" style="stop-color: rgba(0, 255, 25, 1)"/>
      <stop offset="1" style="stop-color: rgba(0, 153, 15, 1)"/>
    </radialGradient>
  </defs>
  <path d="M 25.854 4.146 L 25.854 19.453 C 25.851 21.565 24.139 23.278 22.027 23.28 L 6.719 23.28 C 4.607 23.278 2.895 21.565 2.892 19.453 L 2.892 4.146 C 2.895 2.032 4.607 0.321 6.719 0.318 L 22.027 0.318 C 24.139 0.321 25.851 2.032 25.854 4.146 Z" style="fill-rule: evenodd; fill: rgb(32, 39, 51); stroke: rgb(3, 255, 3); paint-order: stroke;"/>
  <path d="M 20.139 17.06 C 20.716 16.06 19.995 14.81 18.84 14.81 C 18.304 14.81 17.809 15.096 17.541 15.56 C 16.964 16.56 17.685 17.81 18.84 17.81 C 19.376 17.81 19.871 17.524 20.139 17.06 Z" style="fill-rule: evenodd; fill: url(#gradient-0);"/>
  <path d="M 11.069 8.06 C 11.646 7.06 10.925 5.8100000000000005 9.77 5.8100000000000005 C 9.234 5.8100000000000005 8.739 6.096 8.471 6.5600000000000005 C 7.894 7.5600000000000005 8.615 8.81 9.77 8.81 C 10.306 8.81 10.801 8.524000000000001 11.069 8.06 Z" style="fill-rule: evenodd; fill: url(#gradient-1);"/>
  <path d="M 15.401 12.513 C 15.978 11.513 15.257 10.263 14.102 10.263 C 13.566 10.263 13.071 10.549 12.803 11.013 C 12.226 12.013 12.947 13.263 14.102 13.263 C 14.638 13.263 15.133 12.977 15.401 12.513 Z" style="fill-rule: evenodd; fill: url(#gradient-2);"/>
</svg>